<mxfile host="app.diagrams.net" modified="2023-03-29T09:26:42.328Z" agent="Mozilla/5.0 (Windows NT 10.0; Win64; x64) AppleWebKit/537.36 (KHTML, like Gecko) Chrome/111.0.0.0 Safari/537.36" etag="7w84X7OaZAqAZLKhLsCt" version="21.1.1" type="github">
  <diagram id="C5RBs43oDa-KdzZeNtuy" name="Page-1">
    <mxGraphModel dx="3033" dy="2394" grid="1" gridSize="10" guides="1" tooltips="1" connect="1" arrows="1" fold="1" page="1" pageScale="1" pageWidth="827" pageHeight="1169" math="0" shadow="0">
      <root>
        <mxCell id="WIyWlLk6GJQsqaUBKTNV-0" />
        <mxCell id="WIyWlLk6GJQsqaUBKTNV-1" parent="WIyWlLk6GJQsqaUBKTNV-0" />
        <mxCell id="1U3NoZP2p2XrQ27DUTiQ-24" value="Маршрут" style="swimlane;fontStyle=0;childLayout=stackLayout;horizontal=1;startSize=30;horizontalStack=0;resizeParent=1;resizeParentMax=0;resizeLast=0;collapsible=1;marginBottom=0;whiteSpace=wrap;html=1;" parent="WIyWlLk6GJQsqaUBKTNV-1" vertex="1">
          <mxGeometry x="-280" y="330" width="210" height="280" as="geometry" />
        </mxCell>
        <mxCell id="1U3NoZP2p2XrQ27DUTiQ-25" value="+Код_Маршрута" style="text;strokeColor=none;fillColor=none;align=left;verticalAlign=middle;spacingLeft=4;spacingRight=4;overflow=hidden;points=[[0,0.5],[1,0.5]];portConstraint=eastwest;rotatable=0;whiteSpace=wrap;html=1;" parent="1U3NoZP2p2XrQ27DUTiQ-24" vertex="1">
          <mxGeometry y="30" width="210" height="30" as="geometry" />
        </mxCell>
        <mxCell id="1U3NoZP2p2XrQ27DUTiQ-26" value="-Название_Маршрута" style="text;strokeColor=none;fillColor=none;align=left;verticalAlign=middle;spacingLeft=4;spacingRight=4;overflow=hidden;points=[[0,0.5],[1,0.5]];portConstraint=eastwest;rotatable=0;whiteSpace=wrap;html=1;" parent="1U3NoZP2p2XrQ27DUTiQ-24" vertex="1">
          <mxGeometry y="60" width="210" height="30" as="geometry" />
        </mxCell>
        <mxCell id="1U3NoZP2p2XrQ27DUTiQ-27" value="-Продолжительность_Маршрута" style="text;strokeColor=none;fillColor=none;align=left;verticalAlign=middle;spacingLeft=4;spacingRight=4;overflow=hidden;points=[[0,0.5],[1,0.5]];portConstraint=eastwest;rotatable=0;whiteSpace=wrap;html=1;" parent="1U3NoZP2p2XrQ27DUTiQ-24" vertex="1">
          <mxGeometry y="90" width="210" height="30" as="geometry" />
        </mxCell>
        <mxCell id="1U3NoZP2p2XrQ27DUTiQ-32" value="-Протяженность_Маршрута" style="text;strokeColor=none;fillColor=none;align=left;verticalAlign=middle;spacingLeft=4;spacingRight=4;overflow=hidden;points=[[0,0.5],[1,0.5]];portConstraint=eastwest;rotatable=0;whiteSpace=wrap;html=1;" parent="1U3NoZP2p2XrQ27DUTiQ-24" vertex="1">
          <mxGeometry y="120" width="210" height="30" as="geometry" />
        </mxCell>
        <mxCell id="1U3NoZP2p2XrQ27DUTiQ-34" value="-Вид_Транспорта" style="text;strokeColor=none;fillColor=none;align=left;verticalAlign=middle;spacingLeft=4;spacingRight=4;overflow=hidden;points=[[0,0.5],[1,0.5]];portConstraint=eastwest;rotatable=0;whiteSpace=wrap;html=1;" parent="1U3NoZP2p2XrQ27DUTiQ-24" vertex="1">
          <mxGeometry y="150" width="210" height="30" as="geometry" />
        </mxCell>
        <mxCell id="1U3NoZP2p2XrQ27DUTiQ-33" value="+Тип_Маршрута" style="text;strokeColor=none;fillColor=none;align=left;verticalAlign=middle;spacingLeft=4;spacingRight=4;overflow=hidden;points=[[0,0.5],[1,0.5]];portConstraint=eastwest;rotatable=0;whiteSpace=wrap;html=1;" parent="1U3NoZP2p2XrQ27DUTiQ-24" vertex="1">
          <mxGeometry y="180" width="210" height="30" as="geometry" />
        </mxCell>
        <mxCell id="1U3NoZP2p2XrQ27DUTiQ-35" value="+Состояние_Маршрута" style="text;strokeColor=none;fillColor=none;align=left;verticalAlign=middle;spacingLeft=4;spacingRight=4;overflow=hidden;points=[[0,0.5],[1,0.5]];portConstraint=eastwest;rotatable=0;whiteSpace=wrap;html=1;" parent="1U3NoZP2p2XrQ27DUTiQ-24" vertex="1">
          <mxGeometry y="210" width="210" height="30" as="geometry" />
        </mxCell>
        <mxCell id="1U3NoZP2p2XrQ27DUTiQ-36" value="+Выбор типа маршрута&lt;br&gt;+Выбор состояния маршрута" style="rounded=0;whiteSpace=wrap;html=1;align=left;" parent="1U3NoZP2p2XrQ27DUTiQ-24" vertex="1">
          <mxGeometry y="240" width="210" height="40" as="geometry" />
        </mxCell>
        <mxCell id="1U3NoZP2p2XrQ27DUTiQ-37" value="Пассажир" style="swimlane;fontStyle=0;childLayout=stackLayout;horizontal=1;startSize=30;horizontalStack=0;resizeParent=1;resizeParentMax=0;resizeLast=0;collapsible=1;marginBottom=0;whiteSpace=wrap;html=1;" parent="WIyWlLk6GJQsqaUBKTNV-1" vertex="1">
          <mxGeometry x="860" y="390" width="210" height="180" as="geometry" />
        </mxCell>
        <mxCell id="1U3NoZP2p2XrQ27DUTiQ-38" value="+Код_Пассажира" style="text;strokeColor=none;fillColor=none;align=left;verticalAlign=middle;spacingLeft=4;spacingRight=4;overflow=hidden;points=[[0,0.5],[1,0.5]];portConstraint=eastwest;rotatable=0;whiteSpace=wrap;html=1;" parent="1U3NoZP2p2XrQ27DUTiQ-37" vertex="1">
          <mxGeometry y="30" width="210" height="30" as="geometry" />
        </mxCell>
        <mxCell id="1U3NoZP2p2XrQ27DUTiQ-39" value="-Фамилия" style="text;strokeColor=none;fillColor=none;align=left;verticalAlign=middle;spacingLeft=4;spacingRight=4;overflow=hidden;points=[[0,0.5],[1,0.5]];portConstraint=eastwest;rotatable=0;whiteSpace=wrap;html=1;" parent="1U3NoZP2p2XrQ27DUTiQ-37" vertex="1">
          <mxGeometry y="60" width="210" height="30" as="geometry" />
        </mxCell>
        <mxCell id="1U3NoZP2p2XrQ27DUTiQ-40" value="-Имя" style="text;strokeColor=none;fillColor=none;align=left;verticalAlign=middle;spacingLeft=4;spacingRight=4;overflow=hidden;points=[[0,0.5],[1,0.5]];portConstraint=eastwest;rotatable=0;whiteSpace=wrap;html=1;" parent="1U3NoZP2p2XrQ27DUTiQ-37" vertex="1">
          <mxGeometry y="90" width="210" height="30" as="geometry" />
        </mxCell>
        <mxCell id="1U3NoZP2p2XrQ27DUTiQ-41" value="-Отчество" style="text;strokeColor=none;fillColor=none;align=left;verticalAlign=middle;spacingLeft=4;spacingRight=4;overflow=hidden;points=[[0,0.5],[1,0.5]];portConstraint=eastwest;rotatable=0;whiteSpace=wrap;html=1;" parent="1U3NoZP2p2XrQ27DUTiQ-37" vertex="1">
          <mxGeometry y="120" width="210" height="30" as="geometry" />
        </mxCell>
        <mxCell id="1U3NoZP2p2XrQ27DUTiQ-42" value="-Код_Маршрута" style="text;strokeColor=none;fillColor=none;align=left;verticalAlign=middle;spacingLeft=4;spacingRight=4;overflow=hidden;points=[[0,0.5],[1,0.5]];portConstraint=eastwest;rotatable=0;whiteSpace=wrap;html=1;" parent="1U3NoZP2p2XrQ27DUTiQ-37" vertex="1">
          <mxGeometry y="150" width="210" height="30" as="geometry" />
        </mxCell>
        <mxCell id="1U3NoZP2p2XrQ27DUTiQ-46" value="Автопарк" style="swimlane;fontStyle=0;childLayout=stackLayout;horizontal=1;startSize=30;horizontalStack=0;resizeParent=1;resizeParentMax=0;resizeLast=0;collapsible=1;marginBottom=0;whiteSpace=wrap;html=1;" parent="WIyWlLk6GJQsqaUBKTNV-1" vertex="1">
          <mxGeometry x="860" y="580" width="210" height="280" as="geometry" />
        </mxCell>
        <mxCell id="1U3NoZP2p2XrQ27DUTiQ-47" value="+Код_Автопарка" style="text;strokeColor=none;fillColor=none;align=left;verticalAlign=middle;spacingLeft=4;spacingRight=4;overflow=hidden;points=[[0,0.5],[1,0.5]];portConstraint=eastwest;rotatable=0;whiteSpace=wrap;html=1;" parent="1U3NoZP2p2XrQ27DUTiQ-46" vertex="1">
          <mxGeometry y="30" width="210" height="30" as="geometry" />
        </mxCell>
        <mxCell id="1U3NoZP2p2XrQ27DUTiQ-48" value="-Автопарки" style="text;strokeColor=none;fillColor=none;align=left;verticalAlign=middle;spacingLeft=4;spacingRight=4;overflow=hidden;points=[[0,0.5],[1,0.5]];portConstraint=eastwest;rotatable=0;whiteSpace=wrap;html=1;" parent="1U3NoZP2p2XrQ27DUTiQ-46" vertex="1">
          <mxGeometry y="60" width="210" height="30" as="geometry" />
        </mxCell>
        <mxCell id="1U3NoZP2p2XrQ27DUTiQ-49" value="-Предоставлено_машин" style="text;strokeColor=none;fillColor=none;align=left;verticalAlign=middle;spacingLeft=4;spacingRight=4;overflow=hidden;points=[[0,0.5],[1,0.5]];portConstraint=eastwest;rotatable=0;whiteSpace=wrap;html=1;" parent="1U3NoZP2p2XrQ27DUTiQ-46" vertex="1">
          <mxGeometry y="90" width="210" height="30" as="geometry" />
        </mxCell>
        <mxCell id="1U3NoZP2p2XrQ27DUTiQ-50" value="-Дата_Составления_Контракта" style="text;strokeColor=none;fillColor=none;align=left;verticalAlign=middle;spacingLeft=4;spacingRight=4;overflow=hidden;points=[[0,0.5],[1,0.5]];portConstraint=eastwest;rotatable=0;whiteSpace=wrap;html=1;" parent="1U3NoZP2p2XrQ27DUTiQ-46" vertex="1">
          <mxGeometry y="120" width="210" height="30" as="geometry" />
        </mxCell>
        <mxCell id="1U3NoZP2p2XrQ27DUTiQ-51" value="-Срок_Контракта" style="text;strokeColor=none;fillColor=none;align=left;verticalAlign=middle;spacingLeft=4;spacingRight=4;overflow=hidden;points=[[0,0.5],[1,0.5]];portConstraint=eastwest;rotatable=0;whiteSpace=wrap;html=1;" parent="1U3NoZP2p2XrQ27DUTiQ-46" vertex="1">
          <mxGeometry y="150" width="210" height="30" as="geometry" />
        </mxCell>
        <mxCell id="1U3NoZP2p2XrQ27DUTiQ-52" value="+Состояние_Автопарка" style="text;strokeColor=none;fillColor=none;align=left;verticalAlign=middle;spacingLeft=4;spacingRight=4;overflow=hidden;points=[[0,0.5],[1,0.5]];portConstraint=eastwest;rotatable=0;whiteSpace=wrap;html=1;" parent="1U3NoZP2p2XrQ27DUTiQ-46" vertex="1">
          <mxGeometry y="180" width="210" height="30" as="geometry" />
        </mxCell>
        <mxCell id="1U3NoZP2p2XrQ27DUTiQ-53" value="+Страховка" style="text;strokeColor=none;fillColor=none;align=left;verticalAlign=middle;spacingLeft=4;spacingRight=4;overflow=hidden;points=[[0,0.5],[1,0.5]];portConstraint=eastwest;rotatable=0;whiteSpace=wrap;html=1;" parent="1U3NoZP2p2XrQ27DUTiQ-46" vertex="1">
          <mxGeometry y="210" width="210" height="30" as="geometry" />
        </mxCell>
        <mxCell id="1U3NoZP2p2XrQ27DUTiQ-54" value="+Выбор Состояния Автопарка&lt;br&gt;+Выбор Страховки" style="rounded=0;whiteSpace=wrap;html=1;align=left;" parent="1U3NoZP2p2XrQ27DUTiQ-46" vertex="1">
          <mxGeometry y="240" width="210" height="40" as="geometry" />
        </mxCell>
        <mxCell id="1U3NoZP2p2XrQ27DUTiQ-55" value="Билет" style="swimlane;fontStyle=0;childLayout=stackLayout;horizontal=1;startSize=30;horizontalStack=0;resizeParent=1;resizeParentMax=0;resizeLast=0;collapsible=1;marginBottom=0;whiteSpace=wrap;html=1;" parent="WIyWlLk6GJQsqaUBKTNV-1" vertex="1">
          <mxGeometry x="-250" y="710" width="210" height="250" as="geometry" />
        </mxCell>
        <mxCell id="1U3NoZP2p2XrQ27DUTiQ-56" value="+Код_Билета" style="text;strokeColor=none;fillColor=none;align=left;verticalAlign=middle;spacingLeft=4;spacingRight=4;overflow=hidden;points=[[0,0.5],[1,0.5]];portConstraint=eastwest;rotatable=0;whiteSpace=wrap;html=1;" parent="1U3NoZP2p2XrQ27DUTiQ-55" vertex="1">
          <mxGeometry y="30" width="210" height="30" as="geometry" />
        </mxCell>
        <mxCell id="1U3NoZP2p2XrQ27DUTiQ-57" value="-Дата_Оформления" style="text;strokeColor=none;fillColor=none;align=left;verticalAlign=middle;spacingLeft=4;spacingRight=4;overflow=hidden;points=[[0,0.5],[1,0.5]];portConstraint=eastwest;rotatable=0;whiteSpace=wrap;html=1;" parent="1U3NoZP2p2XrQ27DUTiQ-55" vertex="1">
          <mxGeometry y="60" width="210" height="30" as="geometry" />
        </mxCell>
        <mxCell id="1U3NoZP2p2XrQ27DUTiQ-58" value="-Код_Маршрута" style="text;strokeColor=none;fillColor=none;align=left;verticalAlign=middle;spacingLeft=4;spacingRight=4;overflow=hidden;points=[[0,0.5],[1,0.5]];portConstraint=eastwest;rotatable=0;whiteSpace=wrap;html=1;" parent="1U3NoZP2p2XrQ27DUTiQ-55" vertex="1">
          <mxGeometry y="90" width="210" height="30" as="geometry" />
        </mxCell>
        <mxCell id="1U3NoZP2p2XrQ27DUTiQ-59" value="-Код_Пассажира" style="text;strokeColor=none;fillColor=none;align=left;verticalAlign=middle;spacingLeft=4;spacingRight=4;overflow=hidden;points=[[0,0.5],[1,0.5]];portConstraint=eastwest;rotatable=0;whiteSpace=wrap;html=1;" parent="1U3NoZP2p2XrQ27DUTiQ-55" vertex="1">
          <mxGeometry y="120" width="210" height="30" as="geometry" />
        </mxCell>
        <mxCell id="1U3NoZP2p2XrQ27DUTiQ-60" value="-Цена" style="text;strokeColor=none;fillColor=none;align=left;verticalAlign=middle;spacingLeft=4;spacingRight=4;overflow=hidden;points=[[0,0.5],[1,0.5]];portConstraint=eastwest;rotatable=0;whiteSpace=wrap;html=1;" parent="1U3NoZP2p2XrQ27DUTiQ-55" vertex="1">
          <mxGeometry y="150" width="210" height="30" as="geometry" />
        </mxCell>
        <mxCell id="1U3NoZP2p2XrQ27DUTiQ-61" value="+Месяц" style="text;strokeColor=none;fillColor=none;align=left;verticalAlign=middle;spacingLeft=4;spacingRight=4;overflow=hidden;points=[[0,0.5],[1,0.5]];portConstraint=eastwest;rotatable=0;whiteSpace=wrap;html=1;" parent="1U3NoZP2p2XrQ27DUTiQ-55" vertex="1">
          <mxGeometry y="180" width="210" height="30" as="geometry" />
        </mxCell>
        <mxCell id="1U3NoZP2p2XrQ27DUTiQ-63" value="+Выбор Месяца" style="rounded=0;whiteSpace=wrap;html=1;align=left;" parent="1U3NoZP2p2XrQ27DUTiQ-55" vertex="1">
          <mxGeometry y="210" width="210" height="40" as="geometry" />
        </mxCell>
        <mxCell id="1U3NoZP2p2XrQ27DUTiQ-64" value="Автобус" style="swimlane;fontStyle=0;childLayout=stackLayout;horizontal=1;startSize=30;horizontalStack=0;resizeParent=1;resizeParentMax=0;resizeLast=0;collapsible=1;marginBottom=0;whiteSpace=wrap;html=1;" parent="WIyWlLk6GJQsqaUBKTNV-1" vertex="1">
          <mxGeometry x="860" width="210" height="360" as="geometry" />
        </mxCell>
        <mxCell id="1U3NoZP2p2XrQ27DUTiQ-65" value="+Код_Автобуса" style="text;strokeColor=none;fillColor=none;align=left;verticalAlign=middle;spacingLeft=4;spacingRight=4;overflow=hidden;points=[[0,0.5],[1,0.5]];portConstraint=eastwest;rotatable=0;whiteSpace=wrap;html=1;" parent="1U3NoZP2p2XrQ27DUTiQ-64" vertex="1">
          <mxGeometry y="30" width="210" height="30" as="geometry" />
        </mxCell>
        <mxCell id="1U3NoZP2p2XrQ27DUTiQ-66" value="-Марка_Автобуса" style="text;strokeColor=none;fillColor=none;align=left;verticalAlign=middle;spacingLeft=4;spacingRight=4;overflow=hidden;points=[[0,0.5],[1,0.5]];portConstraint=eastwest;rotatable=0;whiteSpace=wrap;html=1;" parent="1U3NoZP2p2XrQ27DUTiQ-64" vertex="1">
          <mxGeometry y="60" width="210" height="30" as="geometry" />
        </mxCell>
        <mxCell id="1U3NoZP2p2XrQ27DUTiQ-67" value="-Дата_Изготовления" style="text;strokeColor=none;fillColor=none;align=left;verticalAlign=middle;spacingLeft=4;spacingRight=4;overflow=hidden;points=[[0,0.5],[1,0.5]];portConstraint=eastwest;rotatable=0;whiteSpace=wrap;html=1;" parent="1U3NoZP2p2XrQ27DUTiQ-64" vertex="1">
          <mxGeometry y="90" width="210" height="30" as="geometry" />
        </mxCell>
        <mxCell id="1U3NoZP2p2XrQ27DUTiQ-68" value="-Регистрационный_Номер" style="text;strokeColor=none;fillColor=none;align=left;verticalAlign=middle;spacingLeft=4;spacingRight=4;overflow=hidden;points=[[0,0.5],[1,0.5]];portConstraint=eastwest;rotatable=0;whiteSpace=wrap;html=1;" parent="1U3NoZP2p2XrQ27DUTiQ-64" vertex="1">
          <mxGeometry y="120" width="210" height="30" as="geometry" />
        </mxCell>
        <mxCell id="1U3NoZP2p2XrQ27DUTiQ-69" value="-Дата_последнего_Кап_ремонта" style="text;strokeColor=none;fillColor=none;align=left;verticalAlign=middle;spacingLeft=4;spacingRight=4;overflow=hidden;points=[[0,0.5],[1,0.5]];portConstraint=eastwest;rotatable=0;whiteSpace=wrap;html=1;" parent="1U3NoZP2p2XrQ27DUTiQ-64" vertex="1">
          <mxGeometry y="150" width="210" height="30" as="geometry" />
        </mxCell>
        <mxCell id="1U3NoZP2p2XrQ27DUTiQ-70" value="+Состояние_Автобуса" style="text;strokeColor=none;fillColor=none;align=left;verticalAlign=middle;spacingLeft=4;spacingRight=4;overflow=hidden;points=[[0,0.5],[1,0.5]];portConstraint=eastwest;rotatable=0;whiteSpace=wrap;html=1;" parent="1U3NoZP2p2XrQ27DUTiQ-64" vertex="1">
          <mxGeometry y="180" width="210" height="30" as="geometry" />
        </mxCell>
        <mxCell id="1U3NoZP2p2XrQ27DUTiQ-71" value="+Этажность_Автобуса" style="text;strokeColor=none;fillColor=none;align=left;verticalAlign=middle;spacingLeft=4;spacingRight=4;overflow=hidden;points=[[0,0.5],[1,0.5]];portConstraint=eastwest;rotatable=0;whiteSpace=wrap;html=1;" parent="1U3NoZP2p2XrQ27DUTiQ-64" vertex="1">
          <mxGeometry y="210" width="210" height="30" as="geometry" />
        </mxCell>
        <mxCell id="1U3NoZP2p2XrQ27DUTiQ-74" value="+Активность_Автобуса" style="text;whiteSpace=wrap;html=1;" parent="1U3NoZP2p2XrQ27DUTiQ-64" vertex="1">
          <mxGeometry y="240" width="210" height="40" as="geometry" />
        </mxCell>
        <mxCell id="1U3NoZP2p2XrQ27DUTiQ-72" value="+Выбор Состояния_Автобуса&lt;br&gt;+Выбор Этажности_Автобуса&lt;br&gt;+Выбор Активности_Автобуса" style="rounded=0;whiteSpace=wrap;html=1;align=left;" parent="1U3NoZP2p2XrQ27DUTiQ-64" vertex="1">
          <mxGeometry y="280" width="210" height="80" as="geometry" />
        </mxCell>
        <mxCell id="1U3NoZP2p2XrQ27DUTiQ-76" value="Водитель" style="swimlane;fontStyle=0;childLayout=stackLayout;horizontal=1;startSize=30;horizontalStack=0;resizeParent=1;resizeParentMax=0;resizeLast=0;collapsible=1;marginBottom=0;whiteSpace=wrap;html=1;" parent="WIyWlLk6GJQsqaUBKTNV-1" vertex="1">
          <mxGeometry x="-250" y="-70" width="210" height="350" as="geometry" />
        </mxCell>
        <mxCell id="1U3NoZP2p2XrQ27DUTiQ-77" value="+Код_Водителя" style="text;strokeColor=none;fillColor=none;align=left;verticalAlign=middle;spacingLeft=4;spacingRight=4;overflow=hidden;points=[[0,0.5],[1,0.5]];portConstraint=eastwest;rotatable=0;whiteSpace=wrap;html=1;" parent="1U3NoZP2p2XrQ27DUTiQ-76" vertex="1">
          <mxGeometry y="30" width="210" height="30" as="geometry" />
        </mxCell>
        <mxCell id="1U3NoZP2p2XrQ27DUTiQ-78" value="-Фамилия" style="text;strokeColor=none;fillColor=none;align=left;verticalAlign=middle;spacingLeft=4;spacingRight=4;overflow=hidden;points=[[0,0.5],[1,0.5]];portConstraint=eastwest;rotatable=0;whiteSpace=wrap;html=1;" parent="1U3NoZP2p2XrQ27DUTiQ-76" vertex="1">
          <mxGeometry y="60" width="210" height="30" as="geometry" />
        </mxCell>
        <mxCell id="1U3NoZP2p2XrQ27DUTiQ-79" value="-Имя" style="text;strokeColor=none;fillColor=none;align=left;verticalAlign=middle;spacingLeft=4;spacingRight=4;overflow=hidden;points=[[0,0.5],[1,0.5]];portConstraint=eastwest;rotatable=0;whiteSpace=wrap;html=1;" parent="1U3NoZP2p2XrQ27DUTiQ-76" vertex="1">
          <mxGeometry y="90" width="210" height="30" as="geometry" />
        </mxCell>
        <mxCell id="1U3NoZP2p2XrQ27DUTiQ-80" value="-Отчество" style="text;strokeColor=none;fillColor=none;align=left;verticalAlign=middle;spacingLeft=4;spacingRight=4;overflow=hidden;points=[[0,0.5],[1,0.5]];portConstraint=eastwest;rotatable=0;whiteSpace=wrap;html=1;" parent="1U3NoZP2p2XrQ27DUTiQ-76" vertex="1">
          <mxGeometry y="120" width="210" height="30" as="geometry" />
        </mxCell>
        <mxCell id="1U3NoZP2p2XrQ27DUTiQ-81" value="+Стаж" style="text;strokeColor=none;fillColor=none;align=left;verticalAlign=middle;spacingLeft=4;spacingRight=4;overflow=hidden;points=[[0,0.5],[1,0.5]];portConstraint=eastwest;rotatable=0;whiteSpace=wrap;html=1;" parent="1U3NoZP2p2XrQ27DUTiQ-76" vertex="1">
          <mxGeometry y="150" width="210" height="30" as="geometry" />
        </mxCell>
        <mxCell id="1U3NoZP2p2XrQ27DUTiQ-82" value="-Дата_Рождения" style="text;strokeColor=none;fillColor=none;align=left;verticalAlign=middle;spacingLeft=4;spacingRight=4;overflow=hidden;points=[[0,0.5],[1,0.5]];portConstraint=eastwest;rotatable=0;whiteSpace=wrap;html=1;" parent="1U3NoZP2p2XrQ27DUTiQ-76" vertex="1">
          <mxGeometry y="180" width="210" height="30" as="geometry" />
        </mxCell>
        <mxCell id="1U3NoZP2p2XrQ27DUTiQ-83" value="+Пол" style="text;strokeColor=none;fillColor=none;align=left;verticalAlign=middle;spacingLeft=4;spacingRight=4;overflow=hidden;points=[[0,0.5],[1,0.5]];portConstraint=eastwest;rotatable=0;whiteSpace=wrap;html=1;" parent="1U3NoZP2p2XrQ27DUTiQ-76" vertex="1">
          <mxGeometry y="210" width="210" height="30" as="geometry" />
        </mxCell>
        <mxCell id="1U3NoZP2p2XrQ27DUTiQ-84" value="+Семейное_Положение" style="text;strokeColor=none;fillColor=none;align=left;verticalAlign=middle;spacingLeft=4;spacingRight=4;overflow=hidden;points=[[0,0.5],[1,0.5]];portConstraint=eastwest;rotatable=0;whiteSpace=wrap;html=1;" parent="1U3NoZP2p2XrQ27DUTiQ-76" vertex="1">
          <mxGeometry y="240" width="210" height="30" as="geometry" />
        </mxCell>
        <mxCell id="1U3NoZP2p2XrQ27DUTiQ-85" value="+Выбор Стажа&lt;br&gt;+Выбор Пола&lt;br&gt;+Выбор Семейного_Положения" style="rounded=0;whiteSpace=wrap;html=1;align=left;" parent="1U3NoZP2p2XrQ27DUTiQ-76" vertex="1">
          <mxGeometry y="270" width="210" height="80" as="geometry" />
        </mxCell>
        <mxCell id="1U3NoZP2p2XrQ27DUTiQ-86" value="Рейс" style="swimlane;fontStyle=0;childLayout=stackLayout;horizontal=1;startSize=30;horizontalStack=0;resizeParent=1;resizeParentMax=0;resizeLast=0;collapsible=1;marginBottom=0;whiteSpace=wrap;html=1;" parent="WIyWlLk6GJQsqaUBKTNV-1" vertex="1">
          <mxGeometry x="240" y="240" width="210" height="440" as="geometry" />
        </mxCell>
        <mxCell id="1U3NoZP2p2XrQ27DUTiQ-87" value="-Код_Рейса" style="text;strokeColor=none;fillColor=none;align=left;verticalAlign=middle;spacingLeft=4;spacingRight=4;overflow=hidden;points=[[0,0.5],[1,0.5]];portConstraint=eastwest;rotatable=0;whiteSpace=wrap;html=1;" parent="1U3NoZP2p2XrQ27DUTiQ-86" vertex="1">
          <mxGeometry y="30" width="210" height="30" as="geometry" />
        </mxCell>
        <mxCell id="1U3NoZP2p2XrQ27DUTiQ-88" value="-Код_Водителя" style="text;strokeColor=none;fillColor=none;align=left;verticalAlign=middle;spacingLeft=4;spacingRight=4;overflow=hidden;points=[[0,0.5],[1,0.5]];portConstraint=eastwest;rotatable=0;whiteSpace=wrap;html=1;" parent="1U3NoZP2p2XrQ27DUTiQ-86" vertex="1">
          <mxGeometry y="60" width="210" height="30" as="geometry" />
        </mxCell>
        <mxCell id="1U3NoZP2p2XrQ27DUTiQ-89" value="-Код_Автобуса" style="text;strokeColor=none;fillColor=none;align=left;verticalAlign=middle;spacingLeft=4;spacingRight=4;overflow=hidden;points=[[0,0.5],[1,0.5]];portConstraint=eastwest;rotatable=0;whiteSpace=wrap;html=1;" parent="1U3NoZP2p2XrQ27DUTiQ-86" vertex="1">
          <mxGeometry y="90" width="210" height="30" as="geometry" />
        </mxCell>
        <mxCell id="1U3NoZP2p2XrQ27DUTiQ-90" value="-Код_Маршрута" style="text;strokeColor=none;fillColor=none;align=left;verticalAlign=middle;spacingLeft=4;spacingRight=4;overflow=hidden;points=[[0,0.5],[1,0.5]];portConstraint=eastwest;rotatable=0;whiteSpace=wrap;html=1;" parent="1U3NoZP2p2XrQ27DUTiQ-86" vertex="1">
          <mxGeometry y="120" width="210" height="30" as="geometry" />
        </mxCell>
        <mxCell id="1U3NoZP2p2XrQ27DUTiQ-91" value="-Код_Пассажира" style="text;strokeColor=none;fillColor=none;align=left;verticalAlign=middle;spacingLeft=4;spacingRight=4;overflow=hidden;points=[[0,0.5],[1,0.5]];portConstraint=eastwest;rotatable=0;whiteSpace=wrap;html=1;" parent="1U3NoZP2p2XrQ27DUTiQ-86" vertex="1">
          <mxGeometry y="150" width="210" height="30" as="geometry" />
        </mxCell>
        <mxCell id="1U3NoZP2p2XrQ27DUTiQ-96" value="-Код_Билета" style="text;strokeColor=none;fillColor=none;align=left;verticalAlign=middle;spacingLeft=4;spacingRight=4;overflow=hidden;points=[[0,0.5],[1,0.5]];portConstraint=eastwest;rotatable=0;whiteSpace=wrap;html=1;" parent="1U3NoZP2p2XrQ27DUTiQ-86" vertex="1">
          <mxGeometry y="180" width="210" height="30" as="geometry" />
        </mxCell>
        <mxCell id="1U3NoZP2p2XrQ27DUTiQ-97" value="-Код_Автопарка" style="text;strokeColor=none;fillColor=none;align=left;verticalAlign=middle;spacingLeft=4;spacingRight=4;overflow=hidden;points=[[0,0.5],[1,0.5]];portConstraint=eastwest;rotatable=0;whiteSpace=wrap;html=1;" parent="1U3NoZP2p2XrQ27DUTiQ-86" vertex="1">
          <mxGeometry y="210" width="210" height="30" as="geometry" />
        </mxCell>
        <mxCell id="1U3NoZP2p2XrQ27DUTiQ-98" value="-Отправление" style="text;strokeColor=none;fillColor=none;align=left;verticalAlign=middle;spacingLeft=4;spacingRight=4;overflow=hidden;points=[[0,0.5],[1,0.5]];portConstraint=eastwest;rotatable=0;whiteSpace=wrap;html=1;" parent="1U3NoZP2p2XrQ27DUTiQ-86" vertex="1">
          <mxGeometry y="240" width="210" height="30" as="geometry" />
        </mxCell>
        <mxCell id="1U3NoZP2p2XrQ27DUTiQ-99" value="-Прибытие" style="text;strokeColor=none;fillColor=none;align=left;verticalAlign=middle;spacingLeft=4;spacingRight=4;overflow=hidden;points=[[0,0.5],[1,0.5]];portConstraint=eastwest;rotatable=0;whiteSpace=wrap;html=1;" parent="1U3NoZP2p2XrQ27DUTiQ-86" vertex="1">
          <mxGeometry y="270" width="210" height="30" as="geometry" />
        </mxCell>
        <mxCell id="1U3NoZP2p2XrQ27DUTiQ-92" value="+Состояние_Рейса" style="text;strokeColor=none;fillColor=none;align=left;verticalAlign=middle;spacingLeft=4;spacingRight=4;overflow=hidden;points=[[0,0.5],[1,0.5]];portConstraint=eastwest;rotatable=0;whiteSpace=wrap;html=1;" parent="1U3NoZP2p2XrQ27DUTiQ-86" vertex="1">
          <mxGeometry y="300" width="210" height="30" as="geometry" />
        </mxCell>
        <mxCell id="1U3NoZP2p2XrQ27DUTiQ-93" value="+Активность_Рейса" style="text;strokeColor=none;fillColor=none;align=left;verticalAlign=middle;spacingLeft=4;spacingRight=4;overflow=hidden;points=[[0,0.5],[1,0.5]];portConstraint=eastwest;rotatable=0;whiteSpace=wrap;html=1;" parent="1U3NoZP2p2XrQ27DUTiQ-86" vertex="1">
          <mxGeometry y="330" width="210" height="30" as="geometry" />
        </mxCell>
        <mxCell id="1U3NoZP2p2XrQ27DUTiQ-95" value="+Выбор Состояния Рейса&lt;br&gt;+Выбор Активность Рейса&lt;br&gt;" style="rounded=0;whiteSpace=wrap;html=1;align=left;" parent="1U3NoZP2p2XrQ27DUTiQ-86" vertex="1">
          <mxGeometry y="360" width="210" height="80" as="geometry" />
        </mxCell>
        <mxCell id="ZH2lWxBBX7NL9M_eEVf8-8" style="edgeStyle=orthogonalEdgeStyle;rounded=0;orthogonalLoop=1;jettySize=auto;html=1;" edge="1" parent="WIyWlLk6GJQsqaUBKTNV-1" source="1U3NoZP2p2XrQ27DUTiQ-88" target="1U3NoZP2p2XrQ27DUTiQ-77">
          <mxGeometry relative="1" as="geometry" />
        </mxCell>
        <mxCell id="ZH2lWxBBX7NL9M_eEVf8-9" style="edgeStyle=orthogonalEdgeStyle;rounded=0;orthogonalLoop=1;jettySize=auto;html=1;entryX=0;entryY=0.5;entryDx=0;entryDy=0;" edge="1" parent="WIyWlLk6GJQsqaUBKTNV-1" source="1U3NoZP2p2XrQ27DUTiQ-89" target="1U3NoZP2p2XrQ27DUTiQ-65">
          <mxGeometry relative="1" as="geometry" />
        </mxCell>
        <mxCell id="ZH2lWxBBX7NL9M_eEVf8-10" style="edgeStyle=orthogonalEdgeStyle;rounded=0;orthogonalLoop=1;jettySize=auto;html=1;entryX=1;entryY=0.5;entryDx=0;entryDy=0;" edge="1" parent="WIyWlLk6GJQsqaUBKTNV-1" source="1U3NoZP2p2XrQ27DUTiQ-90" target="1U3NoZP2p2XrQ27DUTiQ-25">
          <mxGeometry relative="1" as="geometry" />
        </mxCell>
        <mxCell id="ZH2lWxBBX7NL9M_eEVf8-13" style="edgeStyle=orthogonalEdgeStyle;rounded=0;orthogonalLoop=1;jettySize=auto;html=1;entryX=0;entryY=0.5;entryDx=0;entryDy=0;" edge="1" parent="WIyWlLk6GJQsqaUBKTNV-1" source="1U3NoZP2p2XrQ27DUTiQ-97" target="1U3NoZP2p2XrQ27DUTiQ-47">
          <mxGeometry relative="1" as="geometry" />
        </mxCell>
        <mxCell id="ZH2lWxBBX7NL9M_eEVf8-14" style="edgeStyle=orthogonalEdgeStyle;rounded=0;orthogonalLoop=1;jettySize=auto;html=1;entryX=1;entryY=0.5;entryDx=0;entryDy=0;" edge="1" parent="WIyWlLk6GJQsqaUBKTNV-1" source="1U3NoZP2p2XrQ27DUTiQ-96" target="1U3NoZP2p2XrQ27DUTiQ-56">
          <mxGeometry relative="1" as="geometry" />
        </mxCell>
        <mxCell id="ZH2lWxBBX7NL9M_eEVf8-15" style="edgeStyle=orthogonalEdgeStyle;rounded=0;orthogonalLoop=1;jettySize=auto;html=1;entryX=0;entryY=0.5;entryDx=0;entryDy=0;" edge="1" parent="WIyWlLk6GJQsqaUBKTNV-1" source="1U3NoZP2p2XrQ27DUTiQ-91" target="1U3NoZP2p2XrQ27DUTiQ-38">
          <mxGeometry relative="1" as="geometry" />
        </mxCell>
        <mxCell id="ZH2lWxBBX7NL9M_eEVf8-16" style="edgeStyle=orthogonalEdgeStyle;rounded=0;orthogonalLoop=1;jettySize=auto;html=1;entryX=0;entryY=0.5;entryDx=0;entryDy=0;" edge="1" parent="WIyWlLk6GJQsqaUBKTNV-1" source="1U3NoZP2p2XrQ27DUTiQ-58" target="1U3NoZP2p2XrQ27DUTiQ-25">
          <mxGeometry relative="1" as="geometry" />
        </mxCell>
        <mxCell id="ZH2lWxBBX7NL9M_eEVf8-17" style="edgeStyle=orthogonalEdgeStyle;rounded=0;orthogonalLoop=1;jettySize=auto;html=1;entryX=1;entryY=0.5;entryDx=0;entryDy=0;" edge="1" parent="WIyWlLk6GJQsqaUBKTNV-1" source="1U3NoZP2p2XrQ27DUTiQ-59" target="1U3NoZP2p2XrQ27DUTiQ-38">
          <mxGeometry relative="1" as="geometry">
            <mxPoint x="1240" y="490" as="targetPoint" />
            <Array as="points">
              <mxPoint x="10" y="845" />
              <mxPoint x="10" y="950" />
              <mxPoint x="1210" y="950" />
              <mxPoint x="1210" y="435" />
            </Array>
          </mxGeometry>
        </mxCell>
        <mxCell id="ZH2lWxBBX7NL9M_eEVf8-18" style="edgeStyle=orthogonalEdgeStyle;rounded=0;orthogonalLoop=1;jettySize=auto;html=1;entryX=0;entryY=0.5;entryDx=0;entryDy=0;" edge="1" parent="WIyWlLk6GJQsqaUBKTNV-1" source="1U3NoZP2p2XrQ27DUTiQ-42" target="1U3NoZP2p2XrQ27DUTiQ-25">
          <mxGeometry relative="1" as="geometry">
            <mxPoint x="-380" y="360" as="targetPoint" />
            <Array as="points">
              <mxPoint x="1090" y="555" />
              <mxPoint x="1090" y="1040" />
              <mxPoint x="-380" y="1040" />
              <mxPoint x="-380" y="375" />
            </Array>
          </mxGeometry>
        </mxCell>
      </root>
    </mxGraphModel>
  </diagram>
</mxfile>
